<svg xmlns="http://www.w3.org/2000/svg" version="1.1" xmlns:xlink="http://www.w3.org/1999/xlink" xmlns:svgjs="http://svgjs.com/svgjs" width="33" height="33"><svg width="33" height="33" viewBox="0 0 33 33" fill="none" xmlns="http://www.w3.org/2000/svg">
<rect x="0.735474" y="0.168365" width="32" height="32" rx="16" fill="white"></rect>
<path d="M16.3117 21.6084L14.6646 20.1585L16.0217 18.4998L18.0167 20.2977C19.0143 19.1378 19.513 17.5951 19.513 15.6696C19.513 14.5716 19.3236 13.5277 18.9447 12.5379C18.5658 11.5403 17.9935 10.7361 17.228 10.1252C16.4624 9.51435 15.5461 9.20891 14.479 9.20891C13.6516 9.20891 12.9131 9.38676 12.2636 9.74247C11.614 10.0982 11.0727 10.5815 10.6397 11.1924C10.2066 11.8032 9.878 12.4953 9.65375 13.2686C9.4295 14.0419 9.31738 14.8345 9.31738 15.6464C9.31738 16.7368 9.51456 17.7729 9.90893 18.755C10.3033 19.7371 10.891 20.5297 11.672 21.1328C12.453 21.736 13.3887 22.0376 14.479 22.0376C15.1053 22.0376 15.7162 21.8945 16.3117 21.6084ZM20.035 22.084L22.2272 23.963L20.8005 25.5057L18.3995 23.4179C17.1777 24.0674 15.8709 24.3922 14.479 24.3922C13.2727 24.3922 12.1708 24.1679 11.1732 23.7194C10.1757 23.2709 9.32511 22.6446 8.62143 21.8404C7.91775 21.0284 7.38032 20.0928 7.00915 19.0334C6.64571 17.974 6.46399 16.8527 6.46399 15.6696C6.46399 14.4556 6.64958 13.315 7.02075 12.2479C7.39192 11.173 7.92548 10.2296 8.62143 9.41769C9.32511 8.60575 10.1718 7.97167 11.1616 7.51543C12.1592 7.0592 13.265 6.83109 14.479 6.83109C15.693 6.83109 16.795 7.0592 17.7848 7.51543C18.7823 7.97167 19.6251 8.60575 20.3134 9.41769C21.0093 10.2219 21.539 11.1576 21.9024 12.2247C22.2736 13.2918 22.4592 14.4401 22.4592 15.6696C22.4592 16.8682 22.2543 18.0475 21.8444 19.2074C21.4346 20.3595 20.8315 21.3184 20.035 22.084Z" fill="white" style="mix-blend-mode:exclusion"></path>
<path d="M23.794 15.3333V12.1087H27.007V15.3333H23.794ZM23.794 24.0094V20.8196H27.007V24.0094H23.794Z" fill="white" style="mix-blend-mode:exclusion"></path>
</svg><style>@media (prefers-color-scheme: light) { :root { filter: none; } }
</style></svg>